<svg xmlns="http://www.w3.org/2000/svg" version="1.1" xmlns:xlink="http://www.w3.org/1999/xlink" xmlns:svgjs="http://svgjs.dev/svgjs" width="2000" height="858" viewBox="0 0 2000 858"><g transform="matrix(1,0,0,1,-1.2121212121212466,-1.0865451252165599)"><svg viewBox="0 0 396 170" data-background-color="#f9f9f9" preserveAspectRatio="xMidYMid meet" height="858" width="2000" xmlns="http://www.w3.org/2000/svg" xmlns:xlink="http://www.w3.org/1999/xlink"><g id="tight-bounds" transform="matrix(1,0,0,1,0.2400000000000091,0.21528283366761514)"><svg viewBox="0 0 395.52 169.56943433266477" height="169.56943433266477" width="395.52"><g><svg viewBox="0 0 395.52 169.56943433266477" height="169.56943433266477" width="395.52"><g transform="matrix(1,0,0,1,0,104.80071320590422)"><svg viewBox="0 0 395.52 64.76872112676055" height="64.76872112676055" width="395.52"><g id="textblocktransform"><svg viewBox="0 0 395.52 64.76872112676055" height="64.76872112676055" width="395.52" id="textblock"><g><svg viewBox="0 0 395.52 64.76872112676055" height="64.76872112676055" width="395.52"><g transform="matrix(1,0,0,1,0,0)"><svg width="395.52" viewBox="4.05 -31.88 259.99 42.57" height="64.76872112676055" data-palette-color="#030303"><path d="M14.7-31.88L14.7-31.88Q18.46-31.88 21.09-29.1L21.09-29.1Q22.31-29.25 23.05-31.15L23.05-31.15 23.73-31.15 23.58-21.68Q23.58-21.68 22.66-21.68L22.66-21.68Q22.51-23.39 22.27-24.93 22.02-26.46 21.19-27.59L21.19-27.59Q18.9-30.96 14.6-30.96L14.6-30.96Q12.3-30.96 10.69-29.17 9.08-27.39 9.08-25.49L9.08-25.49Q9.08-23.44 11.04-21.63 12.99-19.82 16.21-18.65L16.21-18.65Q20.65-16.99 23.36-14.4 26.07-11.82 26.07-8.59L26.07-8.59Q26.07-4.44 23.34-1.86 20.61 0.73 14.26 0.73L14.26 0.73Q12.89 0.73 11.62 0.44 10.35 0.15 9.55-0.29 8.74-0.73 7.98-1.2 7.23-1.66 6.88-1.95L6.88-1.95Q5.91-1.51 5.08 0.05L5.08 0.05 4.05 0.05 4.15-8.84 5.13-8.84Q5.96-4.83 7.98-2.64 10.01-0.44 14.06-0.44L14.06-0.44Q20.9-0.44 20.9-7.03L20.9-7.03Q20.9-11.33 13.67-13.87L13.67-13.87Q9.77-15.23 7.52-17.75 5.27-20.26 5.27-23.1L5.27-23.1Q5.22-31.88 14.7-31.88ZM41.55-0.39L41.55-0.39Q44.19-0.39 45.65-2.83 47.12-5.27 47.12-9.86L47.12-9.86Q47.12-13.67 45.55-16.53 43.99-19.38 41.45-19.38L41.45-19.38Q39.74-19.38 38.52-18.46 37.3-17.53 36.74-15.94 36.18-14.36 35.91-12.79 35.64-11.23 35.64-9.52L35.64-9.52Q35.64-5.47 37.2-2.93 38.77-0.39 41.55-0.39ZM41.01-20.36L41.01-20.36Q45.36-20.36 48.39-17.33 51.41-14.31 51.41-10.4L51.41-10.4Q51.41-5.66 48.87-2.42 46.34 0.83 41.4 0.83L41.4 0.83Q31.15 0.83 31.15-10.35L31.15-10.35Q31.15-14.7 34.18-17.53 37.2-20.36 41.01-20.36ZM65.08-19.29L65.08-19.29 64.99-18.6Q62.35-18.6 62.35-17.19L62.35-17.19Q62.35-16.89 62.5-16.5L62.5-16.5 67.77-3.52 72.6-16.5Q72.75-16.89 72.75-17.24L72.75-17.24Q72.75-17.77 72.24-18.12 71.72-18.46 71.26-18.51 70.8-18.55 69.97-18.6L69.97-18.6 70.06-19.29Q71.33-19.14 73.73-19.14L73.73-19.14Q76.31-19.14 77.88-19.29L77.88-19.29 77.78-18.6Q76.12-18.6 75.41-18.02 74.7-17.43 74.07-15.92L74.07-15.92 67.87 0.49 65.28 0.49 57.71-16.6Q57.22-17.72 56.42-18.12 55.61-18.51 53.9-18.6L53.9-18.6 54-19.29Q58.88-19.04 60.64-19.04L60.64-19.04Q63.18-19.04 65.08-19.29ZM87.64-31.3L87.64-31.3Q88.76-31.3 89.69-30.49 90.62-29.69 90.62-28.61L90.62-28.61Q90.62-27.29 89.76-26.44 88.91-25.59 87.64-25.59L87.64-25.59Q86.71-25.59 85.83-26.37 84.95-27.15 84.95-28.32L84.95-28.32Q84.95-29.54 85.81-30.42 86.66-31.3 87.64-31.3ZM89.89-20.61L89.89-20.61Q89.79-12.16 89.79-1.81L89.79-1.81Q89.98-0.83 93.21-0.78L93.21-0.78 93.21 0Q91.2-0.15 87.88-0.15L87.88-0.15Q84.71-0.15 82.81 0L82.81 0 82.81-0.78Q85.73-0.88 85.88-1.81L85.88-1.81 85.88-18.21Q84.37-18.7 82.81-18.7L82.81-18.7 82.81-19.48Q87.2-19.73 89.89-20.61ZM101.99-11.33L101.99-11.33 110.78-11.38Q110.83-12.21 110.83-12.94L110.83-12.94Q110.83-14.45 110.59-15.38L110.59-15.38Q110.2-16.94 109-17.94 107.8-18.95 106.04-18.95L106.04-18.95Q104.24-18.95 103.21-16.89 102.19-14.84 101.99-11.33ZM115.13-10.64L101.94-10.6 101.94-9.52Q101.94-6.01 103.24-3.17 104.53-0.34 106.97-0.34L106.97-0.34Q109.8-0.34 111.46-2 113.12-3.66 113.76-5.47L113.76-5.47 115.13-4.49Q114.39-2.64 112.29-0.9 110.2 0.83 106.78 0.83L106.78 0.83Q102.63 0.83 99.87-1.76 97.11-4.35 97.11-9.28L97.11-9.28Q97.11-12.16 98.06-14.33 99.01-16.5 100.6-17.65 102.19-18.8 103.8-19.34 105.41-19.87 107.12-19.87L107.12-19.87Q109.76-19.87 112.03-18.46 114.3-17.04 114.98-13.87L114.98-13.87Q115.18-12.89 115.18-11.91L115.18-11.91Q115.18-11.38 115.13-10.64L115.13-10.64ZM132.7-20.12L132.41-18.85 127.23-18.85Q127.23-18.85 127.23-5.57L127.23-5.57Q127.23-3.47 127.89-2.2 128.55-0.93 129.68-0.93L129.68-0.93Q130.94-0.93 131.8-1.95 132.65-2.98 133.39-5.03L133.39-5.03 134.46-4.49Q134.02-3.32 133.68-2.69 133.34-2.05 132.7-1.22 132.07-0.39 131.14-0.02 130.21 0.34 128.89 0.34L128.89 0.34Q125.96 0.34 124.5-1.32L124.5-1.32Q123.82-2.05 123.52-3.39 123.23-4.74 123.23-7.32L123.23-7.32 123.23-18.85 119.13-18.85 119.13-19.48Q120.3-19.48 121.98-20.14 123.67-20.8 124.3-21.58L124.3-21.58Q124.94-22.41 125.57-23.95 126.21-25.49 126.21-27L126.21-27 127.33-27Q127.14-25.44 127.14-22.22L127.14-22.22Q127.14-21.88 127.14-21.14 127.14-20.41 127.14-20.02L127.14-20.02 132.7-20.12ZM160.14-31.88L160.14-31.88Q163.9-31.88 166.54-29.1L166.54-29.1Q167.76-29.25 168.49-31.15L168.49-31.15 169.17-31.15 169.03-21.68Q169.03-21.68 168.1-21.68L168.1-21.68Q167.95-23.39 167.71-24.93 167.46-26.46 166.63-27.59L166.63-27.59Q164.34-30.96 160.04-30.96L160.04-30.96Q157.75-30.96 156.13-29.17 154.52-27.39 154.52-25.49L154.52-25.49Q154.52-23.44 156.48-21.63 158.43-19.82 161.65-18.65L161.65-18.65Q166.1-16.99 168.81-14.4 171.52-11.82 171.52-8.59L171.52-8.59Q171.52-4.44 168.78-1.86 166.05 0.73 159.7 0.73L159.7 0.73Q158.33 0.73 157.06 0.44 155.79 0.15 154.99-0.29 154.18-0.73 153.42-1.2 152.67-1.66 152.33-1.95L152.33-1.95Q151.35-1.51 150.52 0.05L150.52 0.05 149.49 0.05 149.59-8.84 150.57-8.84Q151.4-4.83 153.42-2.64 155.45-0.44 159.5-0.44L159.5-0.44Q166.34-0.44 166.34-7.03L166.34-7.03Q166.34-11.33 159.11-13.87L159.11-13.87Q155.21-15.23 152.96-17.75 150.71-20.26 150.71-23.1L150.71-23.1Q150.67-31.88 160.14-31.88ZM183.72-14.26L183.72-14.26 183.28-9.18 183.33-3.27Q185.28-1.07 188.6-1.07L188.6-1.07Q190.65-1.07 191.73-3.3 192.8-5.52 192.8-9.47L192.8-9.47Q192.8-13.48 191.78-15.8 190.75-18.12 188.9-18.12L188.9-18.12Q185.62-18.12 183.72-14.26ZM175.61-18.7L175.61-19.43Q179.42-19.43 182.94-20.36L182.94-20.36 183.62-15.87Q184.94-17.97 186.41-19.14 187.87-20.31 190.07-20.31L190.07-20.31Q193.24-20.31 195.61-17.31 197.98-14.31 197.98-10.35L197.98-10.35Q197.98-6.05 195.49-2.88 193 0.29 188.31 0.29L188.31 0.29Q185.43 0.29 183.28-1.95L183.28-1.95 183.33 8.79Q183.67 9.33 185.09 9.67 186.5 10.01 187.68 10.01L187.68 10.01 187.58 10.69Q185.14 10.55 181.38 10.55 177.62 10.55 175.71 10.69L175.71 10.69 175.71 10.01Q179.13 9.91 179.13 8.79L179.13 8.79Q179.33 2.98 179.37-6.84L179.37-6.84Q179.37-13.67 179.23-17.68L179.23-17.68Q177.23-18.6 175.61-18.7L175.61-18.7ZM221.61-4.05L221.61-4.05 222.34-3.61Q221.71 0.34 217.65 0.34L217.65 0.34Q215.99 0.34 215.16-0.76 214.33-1.86 214.19-3.37L214.19-3.37Q213.21-2.25 212.7-1.76 212.18-1.27 210.77-0.42 209.35 0.44 207.94 0.44L207.94 0.44Q205.5 0.44 203.74-0.93 201.98-2.29 201.98-5.27L201.98-5.27Q201.98-6.59 202.54-7.57 203.1-8.54 204.1-9.16 205.1-9.77 206.13-10.16 207.16-10.55 208.52-10.72 209.89-10.89 210.79-10.94 211.7-10.99 212.79-11.01 213.89-11.04 213.99-11.04L213.99-11.04Q214.14-11.04 214.14-14.65L214.14-14.65Q214.14-19.29 209.89-19.29L209.89-19.29Q208.42-19.29 207.55-18.65 206.67-18.02 206.47-17.14L206.47-17.14Q207.89-17.14 207.89-14.99L207.89-14.99Q207.89-13.67 207.01-13.11 206.13-12.55 205.3-12.55L205.3-12.55Q204.37-12.55 203.64-13.4 202.91-14.26 202.91-15.28L202.91-15.28Q202.91-17.09 205.2-18.8L205.2-18.8Q207.06-20.21 210.33-20.21L210.33-20.21Q213.41-20.21 215.8-18.31 218.19-16.41 218.19-13.13L218.19-13.13Q218.19-11.52 218.09-8.64 218-5.76 218-4.49L218-4.49Q218-1.22 219.51-1.27L219.51-1.27Q220.39-1.27 220.83-1.9 221.27-2.54 221.61-4.05ZM213.99-4.59L213.99-4.59 213.99-10.35Q212.28-10.21 210.84-10.03 209.4-9.86 208.38-9.5 207.35-9.13 206.76-8.25 206.18-7.37 206.18-5.81L206.18-5.81Q206.18-3.71 207.23-2.73 208.28-1.76 209.89-1.76L209.89-1.76Q212.43-1.76 213.99-4.59ZM234.84-20.26L234.84-20.26Q237.62-20.26 240.04-18.63 242.46-16.99 242.46-14.6L242.46-14.6Q242.46-12.7 241.48-11.72 240.5-10.74 239.53-10.74L239.53-10.74Q236.79-10.74 236.79-13.38L236.79-13.38Q236.79-14.45 237.43-15.21 238.06-15.97 238.84-15.97L238.84-15.97Q239.72-15.97 240.5-15.28L240.5-15.28Q239.53-19.38 234.74-19.38L234.74-19.38Q232.4-19.38 230.79-16.5 229.17-13.62 229.17-9.28L229.17-9.28Q229.17-6.01 230.91-3.44 232.64-0.88 235.18-0.88L235.18-0.88Q236.74-0.88 237.87-1.37 238.99-1.86 239.67-2.86 240.36-3.86 240.55-4.3 240.75-4.74 241.14-5.76L241.14-5.76 242.5-4.79Q241.77-2.88 239.79-1.07 237.82 0.73 234.74 0.73L234.74 0.73Q230.15 0.73 227.47-2.05 224.78-4.83 224.78-10.25L224.78-10.25Q224.78-12.89 225.81-14.92 226.83-16.94 228.44-18.04 230.05-19.14 231.66-19.7 233.28-20.26 234.84-20.26ZM250.85-11.33L250.85-11.33 259.64-11.38Q259.69-12.21 259.69-12.94L259.69-12.94Q259.69-14.45 259.45-15.38L259.45-15.38Q259.05-16.94 257.86-17.94 256.66-18.95 254.9-18.95L254.9-18.95Q253.1-18.95 252.07-16.89 251.05-14.84 250.85-11.33ZM263.99-10.64L250.8-10.6 250.8-9.52Q250.8-6.01 252.1-3.17 253.39-0.34 255.83-0.34L255.83-0.34Q258.66-0.34 260.32-2 261.98-3.66 262.62-5.47L262.62-5.47 263.99-4.49Q263.25-2.64 261.15-0.9 259.05 0.83 255.64 0.83L255.64 0.83Q251.49 0.83 248.73-1.76 245.97-4.35 245.97-9.28L245.97-9.28Q245.97-12.16 246.92-14.33 247.87-16.5 249.46-17.65 251.05-18.8 252.66-19.34 254.27-19.87 255.98-19.87L255.98-19.87Q258.62-19.87 260.89-18.46 263.16-17.04 263.84-13.87L263.84-13.87Q264.04-12.89 264.04-11.91L264.04-11.91Q264.04-11.38 263.99-10.64L263.99-10.64Z" opacity="1" transform="matrix(1,0,0,1,0,0)" fill="#ffffff" class="wordmark-text-0" data-fill-palette-color="primary" id="text-0"></path></svg></g></svg></g></svg></g></svg></g><g transform="matrix(1,0,0,1,163.01485607078254,0)"><svg viewBox="0 0 69.4902878584349 89.51037259718309" height="89.51037259718309" width="69.4902878584349"><g><svg xmlns="http://www.w3.org/2000/svg" xmlns:xlink="http://www.w3.org/1999/xlink" version="1.1" x="8.000000000000004" y="0" viewBox="17.36025139653105 0.8315312784869874 59.02998226231422 98.780468721513" enable-background="new 0 0 100 100" xml:space="preserve" height="89.51037259718309" width="53.49028785843489" class="icon-icon-0" data-fill-palette-color="accent" id="icon-0"><path fill-rule="evenodd" clip-rule="evenodd" d="M74.522 60.168C72.448 60.344 72.949 63.056 70.434 62.798 72.522 59.453 71.437 54.097 69.806 51.042 70.201 50.399 70.141 49.311 70.591 48.723L70.834 47.313C75.665 46.334 78.999 22.834 73.665 10.167 72.627 7.703 69.332 5.834 69.332 5.834 61.202 1.834 57.929 0.956 47.165 0.834 42.705 0.784 39.481 1.492 36.167 3.095 30.376 5.896 26.029 9.47 22.649 14.54 20.938 17.107 19.024 20.196 18.248 22.738 17.661 24.656 17.795 26.852 17.619 29.235 17.162 35.409 17.081 40.199 19.348 43.928 19.849 44.753 20.928 46.283 21.548 47.022 22.127 47.711 22.899 47.94 23.277 48.723 23.614 49.422 24.279 51.256 24.22 52.126 24.17 52.867 23.383 53.448 23.12 54.137 22.628 55.423 22.388 57.24 22.491 58.777 22.632 60.868 24.062 61.95 24.535 63.881 24.743 64.732 24.351 65.737 25.006 66.666 21.978 68.77 20.458 73.892 23.591 77.184 20.324 79.974 23.746 84.738 26.736 85.845 26.171 90.671 29.636 92.862 34.91 92.033 35.961 94.433 36.262 95.858 38.368 96.827 41.472 98.255 46.152 96.681 49.371 97.911 50.53 98.352 50.85 99.505 52.043 99.612 53.026 99.037 52.62 98.094 53.143 97.292 54.987 94.465 60.16 94.491 63.676 93.271 67.375 91.987 69.3 89.282 69.65 84.917 71.198 82.96 73.379 81.752 73.737 79.039 74.027 76.826 72.783 76.266 72.637 74.708 72.506 73.351 73.371 71.947 73.107 70.533 72.898 69.409 71.754 68.478 71.378 67.595 72.602 65.474 74.878 62.819 74.522 60.168M47.819 16.673L50.691 11.122 53.318 16.792 59.445 17.825 54.902 22.096 55.817 28.285 50.384 25.255 44.823 28.047 46.006 21.903 41.653 17.439zM40.399 68.099C41.984 67.544 49.812 67.757 50.315 65.119 50.575 66.736 57.671 67.942 58.873 68.161 46.767 71.847 42.985 68.532 40.399 68.099M70.278 59.086C70.063 60.448 69.391 61.693 68.392 62.953 63.672 62.592 62.162 57.928 57.074 57.385 55.424 57.207 50.887 57.333 50.084 59.069 47.801 55.833 40.196 56.837 37.739 58.467 35.253 60.116 33.881 64.491 30.666 65.118 28.439 65.553 27.329 64.516 26.421 63.57 24.713 61.789 23.386 59.275 24.064 55.528 24.311 54.163 25.711 53.338 25.793 52.28 25.895 50.95 24.438 49.346 24.221 47.485 24.051 46.026 24.255 44.849 24.064 43.154 26.349 45.173 29.546 46.073 33.705 46.226 33.485 46.609 33.349 47.038 33.349 47.501 33.349 49.021 34.688 50.251 36.34 50.251 37.994 50.251 39.333 49.021 39.333 47.501 39.333 47.145 39.254 46.808 39.12 46.496 40.293 46.714 41.308 47.08 42.141 47.64 42.767 48.059 43.667 49.515 44.342 49.496 44.977 49.478 45.694 48.469 45.757 47.64 45.868 46.176 44.467 44.191 43.557 43.464 39.642 40.34 29.1 41.31 24.693 38.669 25.507 36.104 28.735 34.366 31.923 33.101 37.41 30.923 45.364 29.68 53.143 30.781 60.353 31.801 66.681 33.65 68.706 39.597 63.259 42.847 52.377 40.75 50 47.021 49.017 48.186 49.214 49.806 49.214 49.806 49.192 52.212 49.518 55.442 51.571 55.838 52.7 54.888 50.884 53.812 50.628 52.436 50.403 51.218 50.798 50.148 50.785 48.723 52.492 47.294 55.162 46.959 58.031 46.856A3 3 0 0 0 57.952 47.502C57.952 49.021 59.108 50.252 60.534 50.252 61.962 50.252 63.118 49.021 63.118 47.502A3 3 0 0 0 63.006 46.742C65.36 46.649 67.561 46.389 69.178 45.475 69.683 47.563 68.453 49.09 68.548 51.199 68.665 53.789 70.73 56.235 70.278 59.086" fill="#ffffff" data-fill-palette-color="accent"></path></svg></g></svg></g><g><rect width="163.01485607078254" height="5.84091011253147" y="82.66946248465162" x="232.50514392921744" fill="#ffffff" data-fill-palette-color="accent"></rect><rect width="163.01485607078254" height="5.84091011253147" y="82.66946248465162" x="0" fill="#ffffff" data-fill-palette-color="accent"></rect><rect width="163.01485607078254" height="5.84091011253147" y="70.98764225958868" x="232.50514392921744" fill="#ffffff" data-fill-palette-color="accent"></rect><rect width="163.01485607078254" height="5.84091011253147" y="70.98764225958868" x="0" fill="#ffffff" data-fill-palette-color="accent"></rect></g></svg></g><defs></defs></svg><rect width="395.52" height="169.56943433266477" fill="none" stroke="none" visibility="hidden"></rect></g></svg></g></svg>